<svg version="1.2" xmlns="http://www.w3.org/2000/svg" viewBox="0 0 612 303" width="655" height="324">
	<title>flagedu-01-svg</title>
	<defs>
		<clipPath clipPathUnits="userSpaceOnUse" id="cp1">
			<path d="m545.7 245.4l-235.2 37.7-253-37.7v-202.6h488.2z"/>
		</clipPath>
		<radialGradient id="g1" cx="0" cy="0" r="1" gradientUnits="userSpaceOnUse" gradientTransform="matrix(191.754,0,0,191.754,301.64,162.975)">
			<stop offset="0" stop-color="#0eb5ac"/>
			<stop offset="1" stop-color="#25414e"/>
		</radialGradient>
		<clipPath clipPathUnits="userSpaceOnUse" id="cp2">
			<path d="m0-224h612v792h-612z"/>
		</clipPath>
		<clipPath clipPathUnits="userSpaceOnUse" id="cp3">
			<path d="m0-224h612v792h-612z"/>
		</clipPath>
		<clipPath clipPathUnits="userSpaceOnUse" id="cp4">
			<path d="m0-224h612v792h-612z"/>
		</clipPath>
		<clipPath clipPathUnits="userSpaceOnUse" id="cp5">
			<path d="m0-224h612v792h-612z"/>
		</clipPath>
		<clipPath clipPathUnits="userSpaceOnUse" id="cp6">
			<path d="m0-224h612v792h-612z"/>
		</clipPath>
		<clipPath clipPathUnits="userSpaceOnUse" id="cp7">
			<path d="m0-224h612v792h-612z"/>
		</clipPath>
		<clipPath clipPathUnits="userSpaceOnUse" id="cp8">
			<path d="m548.9 37.6v213.4l-245.2 41.4-253-41.4v-213.4zm-12.1 8.4h-474v195.8l240.6 38.7 233.4-36.5z"/>
		</clipPath>
		<linearGradient id="g2" x2="1" gradientUnits="userSpaceOnUse" gradientTransform="matrix(498.212,0,0,254.806,50.669,164.988)">
			<stop offset="0" stop-color="#0eb5ac"/>
			<stop offset="1" stop-color="#25414e"/>
		</linearGradient>
		<clipPath clipPathUnits="userSpaceOnUse" id="cp9">
			<path d="m0-224h612v792h-612z"/>
		</clipPath>
		<clipPath clipPathUnits="userSpaceOnUse" id="cp10">
			<path d="m0-224h612v792h-612z"/>
		</clipPath>
		<clipPath clipPathUnits="userSpaceOnUse" id="cp11">
			<path d="m0-224h612v792h-612z"/>
		</clipPath>
		<clipPath clipPathUnits="userSpaceOnUse" id="cp12">
			<path d="m0-224h612v792h-612z"/>
		</clipPath>
		<clipPath clipPathUnits="userSpaceOnUse" id="cp13">
			<path d="m0-224h612v792h-612z"/>
		</clipPath>
	</defs>
	<style>
		.s0 { fill: url(#g1) } 
		.s1 { fill: #ffffff } 
		.s2 { fill: url(#g2) } 
	</style>
	<g id="Layer_3">
		<g id="Layer">
			<g id="Clip-Path" clip-path="url(#cp1)">
				<path id="Layer" class="s0" d="m57.5 42.8h488.2v240.3h-488.2z"/>
			</g>
		</g>
	</g>
	<g id="Layer_1">
		<path id="Layer" class="s1" d="m72.2 178.3l20.8-0.2c0.5 0 0.9-0.4 0.9-0.9l-0.1-38.8c0-0.5 0.4-0.9 0.9-0.9h36.8c0.5 0 0.9 0.4 0.9 0.9v4.8c0 0.8 1 1.2 1.6 0.6l18.6-19.2c0.3-0.4 0.3-0.9 0-1.3l-18.5-19.3c-0.6-0.6-1.6-0.2-1.6 0.6v5c0 0.5-0.4 0.9-0.9 0.9h-31.9c-0.5 0-0.9 0.4-0.9 0.9v4.6c0 0.8-1 1.2-1.6 0.6l-18.7-19.2c-0.4-0.4-0.4-0.9 0-1.3l18.6-19.2c0.6-0.6 1.6-0.2 1.6 0.6v4.6c0 0.5 0.4 0.9 0.9 0.9h46.8c0.5 0 0.9-0.4 0.9-0.9v-21.9c0-0.5-0.4-0.9-0.9-0.9h-74.4c-0.5 0-0.9 0.4-0.9 0.9v77h0.1l0.1 40c0 0.7 0.4 1.1 0.9 1.1z"/>
		<g id="Layer">
			<g id="Clip-Path" clip-path="url(#cp2)">
				<path id="Layer" class="s1" d="m158.1 172.4h41.1l0.7-0.6 0.2-1.3v-0.1-19l-0.2-0.6-0.7-0.4h-19.5c-0.5 0-0.9-0.4-0.9-0.9v-87.7c0-0.1-1.1-0.3-3.2-0.4-2.1-0.1-4.6-0.2-7.4-0.2h-7.4c-2.1 0-3.2 0.1-3.2 0.4 0 0.3 0 0.4-0.1 0.6-0.1 0.1-0.1 0.3-0.3 0.4v1.1l-0.4 107.4c0 0.4 0.1 0.7 0.4 0.9 0.4 0.3 0.7 0.4 0.9 0.4z"/>
			</g>
		</g>
		<g id="Layer">
			<g id="Clip-Path" clip-path="url(#cp3)">
				<path id="Layer" fill-rule="evenodd" class="s1" d="m223.2 172.3h-19.5c-0.5 0-0.9-0.4-0.9-0.9 0-2.3 0-8.1 0.1-17.5 0.1-11.2 0.1-23.9 0.2-38.3 0.1-14.4 0.1-32.7 0.1-55 0-0.3 3.1-0.4 9.2-0.4h21c7.9 0 14.9 0 21 0.1 6.1 0.1 9.2 0.2 9.2 0.3l-0.5 110.8c0 0.3-0.2 0.5-0.4 0.8-0.2 0.3-0.5 0.3-0.7 0.2h-19.2c-0.5 0-0.9-0.4-0.9-0.9l-0.2-41.3c0-0.5-0.4-0.9-0.9-0.9-5.1-0.1-10.2-0.2-15.2-0.2-0.5 0-0.9 0.4-0.9 0.9l-0.4 41.4c0 0.3-0.2 0.5-0.4 0.7-0.2 0.2-0.5 0.3-0.7 0.2zm1.8-67.1c0 0.5 0.4 0.9 0.9 0.9h14.9c0.5 0 0.9-0.4 0.9-0.9v-20.9c0-0.5-0.4-0.9-0.9-0.9l-7.9-0.2h-7c-0.5 0-0.9 0.4-0.9 0.9z"/>
			</g>
		</g>
		<g id="Layer">
			<g id="Clip-Path" clip-path="url(#cp4)">
				<path id="Layer" class="s1" d="m390.3 168.8c0.1-2.4 0.1-5.1 0.1-8 0-3 0-5.6-0.1-8q-0.1-3.6-0.3-3.6h-34.7c0-6.5 0.1-12.9 0.2-19.1 0-0.5 0.4-0.9 0.9-0.9h33.4c0.1 0 0.2-1.2 0.3-3.5 0.1-2.3 0.1-5 0.1-8.1v-8.1c0-2.3-0.1-3.5-0.2-3.5h-34.3l0.2-22.9 34 0.2c0.1 0 0.2-1.2 0.3-3.5 0.1-2.3 0.1-5 0.1-7.9v-7.9c0-2.3-0.1-3.5-0.2-3.5l-50.4-0.2h-2.7c-2-0.3-3-0.1-3 0.4v55 38.4 18.5h56c0.2-0.2 0.2-1.4 0.3-3.8z"/>
			</g>
		</g>
		<g id="Layer">
			<g id="Clip-Path" clip-path="url(#cp5)">
				<path id="Layer" fill-rule="evenodd" class="s1" d="m442.5 174.5c-0.2 0.2-0.4 0.3-0.7 0.3l-47.2-0.4c-0.5 0-0.9-0.4-0.9-0.9v-111.1c0-0.7 1.3-0.8 3.9-0.6h1.8l42.9 0.4c0.2 0 0.3-0.1 0.4-0.2 0.1 0.1 0.5 0.5 1.1 1.2 0.6 0.7 1.3 1.4 2.1 2.2 0.7 0.7 1.7 1.7 2.9 3l12.3 13v0.2l-0.4 73.3c0 0.3-0.1 0.5-0.3 0.7-0.4 0.4-1.3 1.4-2.7 2.8-1.8 1.9-3.9 4-6.2 6.5q-3.6 3.6-6.3 6.6-2.1 2.1-2.7 3zm-3.5-83.4c0-0.2-0.1-0.4-0.2-0.6l-2.3-2.6-0.4-0.4c-0.3-0.5-0.9-1.1-1.7-2-0.2-0.2-0.4-0.3-0.7-0.3l-14.1-0.2h-1.3c-0.6 0-1.2 0-2-0.1-0.5-0.1-1 0.4-1 0.9l-0.5 64.8c0 0.5 0.4 0.9 0.9 0.9h17.1c0.3 0 0.5-0.1 0.7-0.3l2.6-2.6c0.1 0 0.4-0.3 0.8-0.7 0.4-0.3 0.8-0.8 1.3-1.3 0.2-0.1 0.3-0.4 0.3-0.6l0.5-51.6z"/>
			</g>
		</g>
		<g id="Layer">
			<g id="Clip-Path" clip-path="url(#cp6)">
				<path id="Layer" class="s1" d="m526.2 172c0.2-0.3 0.3-0.5 0.3-0.8l0.7-110.4c0-0.1-1.1-0.3-3.3-0.4-2.2-0.1-4.8-0.2-7.7-0.2h-7.7c-2.2 0-3.3 0.1-3.3 0.4v87.5c0 0.5-0.4 0.9-0.9 0.9h-17.6c-0.5 0-0.9-0.4-0.9-0.9v-87.4c0-0.1-1.1-0.3-3.3-0.4-2.2-0.1-4.8-0.2-7.7-0.2h-7.8c-2.2 0-3.3 0.1-3.3 0.4v55 38.5 17.5c0 0.5 0.4 0.9 0.9 0.9h60.9c0.3 0 0.5-0.1 0.7-0.4z"/>
			</g>
		</g>
		<g id="Layer">
			<g id="Clip-Path" clip-path="url(#cp7)">
				<path id="Layer" class="s1" d="m330.7 172c0.2-0.1 0.4-0.3 0.4-0.4l0.2-63.3v-0.2c0-0.1-0.1-0.3-0.2-0.4h-33.3q-0.2 0 0 1.8v0.1 3.2 11.3 2.5 2.4c0 0.6 0.1 0.9 0.2 0.9h8c0.5 0 0.9-0.4 0.9-0.9 0-0.7 0.8-1.2 1.4-0.8l17.7 11.7c0.6 0.4 0.5 1.2 0 1.6l-17.2 9.8c-0.6 0.3-1.4-0.1-1.4-0.8v-0.3c0-0.5-0.4-0.9-0.9-0.9h-17.9c-0.5 0-0.9-0.4-0.9-0.9 0-5.1 0-10.1 0.1-15.1 0.1-5.3 0.1-9.5 0.1-12.5v-3.8l0.3-33.1c0-0.5 0.4-0.9 0.9-0.9 0.6 0 1.2 0 1.9 0.1 1.1 0.1 2.7 0.1 4.9 0.1h9.6 15.9c0.5 0 0.9-0.4 0.9-0.9 0.1-4.2 0.2-7.8 0.2-10.5v-7.9c0-2.3-0.1-3.5-0.2-3.5l-50.2-0.2h-2.6-0.1c-2-0.2-3-0.1-3 0.4v111c0 0.5 0.4 0.9 0.9 0.9l62.7-0.2c0.2-0.1 0.4-0.1 0.7-0.3z"/>
			</g>
		</g>
	</g>
	<g id="Layer_4">
		<g id="Layer">
			<g id="Clip-Path" clip-path="url(#cp8)">
				<path id="Layer" class="s2" d="m50.7 37.6h498.2v254.8h-498.2z"/>
			</g>
		</g>
	</g>
	<g id="Layer_5">
		<g id="Layer">
			<g id="Clip-Path" clip-path="url(#cp9)">
				<path id="Layer" class="s1" d="m144.1 198.3l-17.2-2.4c-1.1-0.1-2-0.8-2.4-1.7l-7.7-15.1c-1.2-2.3-4.6-2.3-5.8 0l-7.7 15.1c-0.5 0.9-1.4 1.6-2.4 1.7l-17.2 2.4c-2.7 0.4-3.7 3.5-1.8 5.4l12.5 11.8c0.8 0.7 1.1 1.8 0.9 2.8l-2.9 16.6c-0.5 2.6 2.3 4.5 4.7 3.3l15.4-7.8c1-0.5 2.1-0.5 3 0l15.4 7.8c2.4 1.2 5.2-0.7 4.7-3.3l-2.9-16.6c-0.2-1 0.2-2.1 0.9-2.8l12.5-11.8c1.8-1.9 0.7-5.1-2-5.4z"/>
			</g>
		</g>
	</g>
	<g id="Layer_6">
		<g id="Layer">
			<g id="Clip-Path" clip-path="url(#cp10)">
				<path id="Layer" class="s1" d="m197.3 188.3l-7.7 15.1c-0.5 0.9-1.4 1.6-2.4 1.7l-17.2 2.4c-2.7 0.4-3.7 3.5-1.8 5.4l12.5 11.8c0.8 0.7 1.1 1.8 0.9 2.8l-2.9 16.6c-0.4 2.6 2.3 4.5 4.7 3.3l15.4-7.8c1-0.5 2.1-0.5 3 0l15.4 7.8c2.4 1.2 5.2-0.7 4.7-3.3l-2.9-16.6c-0.2-1 0.2-2.1 0.9-2.8l12.5-11.8c1.9-1.8 0.9-5-1.8-5.4l-17.2-2.4c-1.1-0.1-2-0.8-2.5-1.7l-7.7-15.1c-1.3-2.3-4.7-2.3-5.9 0z"/>
			</g>
		</g>
	</g>
	<g id="Layer_7">
		<g id="Layer">
			<g id="Clip-Path" clip-path="url(#cp11)">
				<path id="Layer" class="s1" d="m322 209.6l-17.2-2.4c-1-0.1-2-0.8-2.4-1.7l-7.7-15.1c-1.2-2.3-4.6-2.3-5.8 0l-7.7 15.1c-0.5 0.9-1.4 1.6-2.4 1.7l-17.2 2.4c-2.7 0.4-3.7 3.5-1.8 5.4l12.5 11.8c0.8 0.7 1.1 1.8 0.9 2.8l-2.9 16.6c-0.5 2.6 2.3 4.5 4.7 3.3l15.4-7.8c0.9-0.5 2.1-0.5 3 0l15.4 7.8c2.4 1.2 5.2-0.7 4.7-3.3l-2.9-16.6c-0.2-1 0.2-2.1 0.9-2.8l12.5-11.8c1.7-1.9 0.7-5-2-5.4z"/>
			</g>
		</g>
	</g>
	<g id="Layer_8">
		<g id="Layer">
			<g id="Clip-Path" clip-path="url(#cp12)">
				<path id="Layer" class="s1" d="m384.7 189.3l-7.7 15.1c-0.5 0.9-1.4 1.6-2.4 1.7l-17.2 2.4c-2.7 0.4-3.7 3.5-1.8 5.4l12.5 11.8c0.8 0.7 1.1 1.8 0.9 2.8l-2.9 16.6c-0.5 2.6 2.3 4.5 4.7 3.3l15.4-7.8c0.9-0.5 2.1-0.5 3 0l15.4 7.8c2.4 1.2 5.2-0.7 4.7-3.3l-2.9-16.6c-0.2-1 0.2-2.1 0.9-2.8l12.5-11.8c1.9-1.8 0.9-5-1.8-5.4l-17.2-2.4c-1.1-0.2-2-0.8-2.4-1.7l-7.7-15.1c-1.4-2.3-4.9-2.3-6 0z"/>
			</g>
		</g>
	</g>
	<g id="Layer_9">
		<g id="Layer">
			<g id="Clip-Path" clip-path="url(#cp13)">
				<path id="Layer" class="s1" d="m509.9 206.1l-17.2-2.4c-1.1-0.1-2-0.8-2.4-1.7l-7.7-15.1c-1.2-2.3-4.6-2.3-5.8 0l-7.8 15.1c-0.5 0.9-1.4 1.6-2.4 1.7l-17.2 2.4c-2.7 0.4-3.7 3.5-1.8 5.4l12.4 11.8c0.8 0.7 1.1 1.8 0.9 2.8l-2.9 16.6c-0.5 2.6 2.3 4.5 4.7 3.3l15.4-7.9c0.9-0.5 2.1-0.5 3 0l15.4 7.9c2.4 1.2 5.2-0.7 4.7-3.3l-2.9-16.6c-0.2-1 0.2-2.1 0.9-2.8l12.5-11.8c1.9-1.8 0.9-5-1.8-5.4z"/>
			</g>
		</g>
	</g>
</svg>